<svg viewBox="0 0 350 112" class="SvgLogo2-root-3"><rect xmlns="http://www.w3.org/2000/svg" width="110" height="92" rx="10" ry="10" transform="translate(20 20)" fill="#aab6fe  "></rect><g xmlns="http://www.w3.org/2000/svg" fill="#002984  "><path d="M62.265 85.652H45.39A5.397 5.397 0 0140 80.26V45.39A5.397 5.397 0 0145.39 40h47.507a5.397 5.397 0 015.39 5.39v2.285l-1.685 1.267V45.39a3.709 3.709 0 00-3.705-3.705H45.39a3.709 3.709 0 00-3.705 3.705v34.87a3.71 3.71 0 003.705 3.707h17.382l-.507 1.685zm11.559-1.685h19.073a3.71 3.71 0 003.705-3.707V61.153l1.685-1.334V80.26a5.397 5.397 0 01-5.39 5.392h-20.37l1.297-1.685z"></path><path d="M53.203 54.188l-6.548-2.868c-.854-.367-.957-.813-.957-1.282 0-.65.469-1.097 1.12-1.097.284 0 .61.041 1.118.285l8.276 3.802c.428.204.752.652.752 1.16 0 .509-.324.955-.752 1.159l-8.276 3.802c-.508.246-.834.285-1.119.285-.65 0-1.119-.447-1.119-1.097 0-.467.103-.915.957-1.282l6.548-2.867zM98.123 60.217c-.456 0-.884-.178-1.204-.499l-4.834-4.836a1.697 1.697 0 010-2.408l10.171-10.171c.649-.647 1.768-.64 2.41 0l4.833 4.833c.323.321.501.749.501 1.204 0 .456-.178.884-.501 1.206L99.327 59.718c-.324.323-.75.499-1.204.499zm5.35-16.724L93.275 53.665l4.848 4.866c.008 0 .01-.003.014-.007l10.17-10.171-4.834-4.86z"></path><path d="M61.668 91.607c-.465 0-.89-.208-1.168-.566a1.506 1.506 0 01-.252-1.315l1.787-6.893c.076-.282.224-.535.43-.738l35.383-35.383c.574-.577 1.564-.612 2.108-.067l5.2 5.201c.562.561.534 1.507-.064 2.108l-35.39 35.389a1.63 1.63 0 01-.73.421l-6.897 1.79a1.65 1.65 0 01-.407.053zm37.24-43.629L63.65 83.291l-1.692 6.551 6.586-1.71 35.252-35.266-4.889-4.888z"></path><path d="M65.862 85.981a.842.842 0 01-.596-1.438l35.698-35.698a.841.841 0 111.19 1.19l-35.696 35.7a.84.84 0 01-.596.246z"></path></g><path d="M164.464 45.26v25.859h-5.698v-25.86H150v-4.82h23.23v3.287l-1.534 1.534h-7.232zM193.693 40c4.383 0 7.232 2.849 7.232 6.794v17.97c0 3.944-2.85 6.793-7.232 6.793h-9.643c-4.383 0-7.232-2.849-7.232-6.793v-17.97c0-3.945 2.85-6.794 7.232-6.794h9.643zm-8.109 4.821c-1.753 0-3.068 1.315-3.068 2.85v16.216c0 1.534 1.315 2.85 3.068 2.85h6.575c1.753 0 3.068-1.316 3.068-2.85V47.67c0-1.534-1.315-2.849-3.068-2.849h-6.575zm21.559 26.298v-30.68h15.56c4.382 0 7.231 2.848 7.231 6.793v17.093c0 3.945-2.849 6.794-7.232 6.794h-15.56zm17.093-7.67v-15.34c0-1.535-1.314-2.85-3.068-2.85h-8.327v21.039h8.327c1.754 0 3.068-1.315 3.068-2.85zM252.15 40c4.383 0 7.232 2.849 7.232 6.794v17.97c0 3.944-2.849 6.793-7.232 6.793h-9.642c-4.383 0-7.232-2.849-7.232-6.793v-17.97c0-3.945 2.849-6.794 7.232-6.794h9.642zm-8.108 4.821c-1.753 0-3.068 1.315-3.068 2.85v16.216c0 1.534 1.315 2.85 3.068 2.85h6.574c1.754 0 3.068-1.316 3.068-2.85V47.67c0-1.534-1.314-2.849-3.068-2.849h-6.574zm21.559-4.383h5.697v25.86h14.903v4.821h-20.6v-30.68zm30.763 30.681h-5.698v-30.68h5.698v30.68zm27.694-6.574c0 3.506-3.068 6.574-7.45 6.574h-14.684v-4.821h12.93c2.192 0 3.506-1.315 3.506-3.068v-1.534c0-1.754-.657-2.63-1.753-2.85l-8.985-1.972c-3.068-.657-5.478-3.068-5.478-6.793v-3.068c0-3.507 3.068-6.575 7.45-6.575h13.588v3.288l-1.534 1.534h-10.3c-2.192 0-3.507 1.314-3.507 3.068v1.095c0 1.754.658 2.411 1.754 2.63l8.985 1.972c3.068.658 5.478 3.069 5.478 7.013v3.507zm17.176-19.285v25.859h-5.698v-25.86h-8.766v-4.82H350v3.287l-1.534 1.534h-7.232z" fill="#000"></path></svg>
