<svg viewBox="-8 0 377.90422753781587 117.82373995678182"><defs id="SvgjsDefs1011"></defs><g id="SvgjsG1012" featurekey="xKA9Gy-0" transform="matrix(3.681991873649432,0,0,3.681991873649432,-15.363983747298864,0)" fill="#ff006c"><g xmlns="http://www.w3.org/2000/svg" transform="translate(0,-1020.3622)"><g transform="translate(-8.0009203,-4.1324463)"><path style="" d="M 13 0 L 13 1.9980469 L 13 6 L 12 6 L 12 2.3144531 A 11.538618 11.526427 0 0 0 10.050781 3.2304688 A 11.538618 11.526427 0 0 0 4.4941406 12 L 27.425781 12 A 11.538618 11.526427 0 0 0 21.660156 3.1035156 A 11.538618 11.526427 0 0 0 20 2.3457031 L 20 6 L 19 6 L 19 2.0097656 L 19 0 L 16.464844 0 L 16.464844 3 L 15.464844 3 L 15.464844 0 L 13 0 z M 27.425781 12 A 11.538618 11.526427 0 0 1 27.488281 12.833984 A 11.538618 11.526427 0 0 0 27.433594 12 L 27.425781 12 z M 4.4824219 12.154297 A 11.538618 11.526427 0 0 0 4.4394531 13 L 3 13 C 2.44599 13 2 13.446 2 14 L 2 15 C 2 15.554 2.44599 16 3 16 L 29 16 C 29.55401 16 30 15.554 30 15 L 30 14 C 30 13.446 29.55401 13 29 13 L 27.498047 13 L 4.4433594 13 A 11.538618 11.526427 0 0 1 4.4824219 12.154297 z M 2 18 L 2 18.517578 L 2 20 L 2 20.544922 L 4.8496094 20.544922 C 5.1321394 21.801722 5.6249506 23.002803 6.3066406 24.095703 L 4.3007812 26.097656 L 7.9023438 29.699219 L 9.9101562 27.689453 C 11.000896 28.374253 12.199428 28.867997 13.455078 29.154297 L 13.455078 32 L 18.544922 32 L 18.544922 29.150391 C 19.801662 28.867891 21.002783 28.377012 22.095703 27.695312 L 24.097656 29.699219 L 27.699219 26.097656 L 25.689453 24.089844 C 26.374143 22.999144 26.87013 21.800622 27.15625 20.544922 L 30 20.544922 L 30 20 L 30 18.517578 L 30 18 L 23 18 A 7 7 0 0 1 16 25 A 7 7 0 0 1 9 18 L 2 18 z " transform="translate(8.0009203,1024.4946)" fill="#3f51b5" fill-opacity="1" stroke="none"></path></g></g></g><g id="SvgjsG1013" featurekey="svOXlZ-0" transform="matrix(3.0482003399730355,0,0,3.0482003399730355,120.56144060011869,29.137549961264924)" fill="#000"><path d="M10.82 6 l0 2.96 l-3.4 0 l0 11.04 l-3.22 0 l0 -11.04 l-3.4 0 l0 -2.96 l10.02 0 z M17.8 9.42 c2.36 0 5.48 1.78 5.48 5.42 c0 3.66 -3.12 5.36 -5.48 5.36 s-5.48 -1.7 -5.48 -5.36 c0 -3.64 3.12 -5.42 5.48 -5.42 z M17.8 12.2 c-1.2 0 -2.42 0.92 -2.42 2.64 c0 1.66 1.22 2.58 2.42 2.58 s2.44 -0.92 2.44 -2.58 c0 -1.72 -1.24 -2.64 -2.44 -2.64 z M32.480000000000004 5.859999999999999 l3.16 0 l0 5.08 l0 9.06 l-3.16 0 l0 -1.04 c-0.14 0.36 -1.08 1.24 -2.68 1.24 c-2.38 0 -5.12 -1.7 -5.12 -5.42 c0 -3.58 2.74 -5.36 5.12 -5.36 c1.6 0 2.54 0.92 2.68 1.14 l0 -4.7 z M30.26 17.42 c1.3 0 2.36 -0.9 2.36 -2.64 c0 -1.68 -1.06 -2.58 -2.36 -2.58 c-1.36 0 -2.52 0.92 -2.52 2.58 c0 1.72 1.16 2.64 2.52 2.64 z M42.839999999999996 9.42 c2.36 0 5.48 1.78 5.48 5.42 c0 3.66 -3.12 5.36 -5.48 5.36 s-5.48 -1.7 -5.48 -5.36 c0 -3.64 3.12 -5.42 5.48 -5.42 z M42.839999999999996 12.2 c-1.2 0 -2.42 0.92 -2.42 2.64 c0 1.66 1.22 2.58 2.42 2.58 s2.44 -0.92 2.44 -2.58 c0 -1.72 -1.24 -2.64 -2.44 -2.64 z M53.44 17.04 l5.32 0 l0 2.96 l-8.54 0 l0 -14 l3.22 0 l0 11.04 z M63.739999999999995 5.859999999999999 l0 2.66 l-3.16 0 l0 -2.66 l3.16 0 z M63.739999999999995 9.6 l0 10.4 l-3.16 0 l0 -10.4 l3.16 0 z M70.71999999999998 12.879999999999999 c-0.28 -0.72 -0.7 -0.96 -1.16 -0.96 c-0.42 0 -0.84 0.24 -0.84 0.64 c0 0.38 0.24 0.6 0.7 0.76 l1.32 0.46 c1.48 0.54 2.98 1.08 2.98 3.16 c0 2.1 -2.1 3.3 -4.26 3.3 c-1.94 0 -3.76 -1.14 -4.2 -2.96 l2.48 -0.78 c0.26 0.58 0.72 1.24 1.72 1.24 c0.68 0 1.12 -0.44 1.12 -0.84 c0 -0.2 -0.16 -0.46 -0.66 -0.66 l-1.22 -0.44 c-2.08 -0.76 -3.06 -1.82 -3.06 -3.3 c0 -1.94 1.8 -3.08 3.78 -3.08 c2.02 0 3.36 1.1 3.96 2.76 z M80.39999999999999 17.36 c0.56 0 0.96 -0.08 1.4 -0.2 l0 2.62 c-0.44 0.2 -1.16 0.34 -2.22 0.34 c-1.74 0 -3.2 -0.58 -3.2 -3.78 l0 -4.14 l-1.46 0 l0 -2.6 l1.46 0 l0 -2.44 l3.16 0 l0 2.44 l2.22 0 l0 2.6 l-2.22 0 l0 4.14 c0 0.46 0.12 1.02 0.86 1.02 z"></path></g></svg>
